ffmpeg started on 2025-05-28 at 22:04:31
Report written to "D:\Convert\FFMetrics\reports\psnr_report-6.txt"
Log level: 32
Command line:
ffmpeg -hide_banner -nostdin -i "G:\\\xc0\xed\xe8\xec\xe5\\\xce\xed\xe3\xee\xe8\xed\xe3\xe8\\!_36_\xce\xf1\xe5\xed\xfc_2024\\JamClub\\\xcc\xe5\xf5\xe0\xed\xe8\xf7\xe5\xf1\xea\xe8\xe5 \xf0\xf3\xea\xe8\\JamClub_Mecha_ude_TV_07_1080p_HEVC.mkv" -i "G:\\\xc0\xed\xe8\xec\xe5\\\xce\xed\xe3\xee\xe8\xed\xe3\xe8\\!_36_\xce\xf1\xe5\xed\xfc_2024\\JamClub\\\xcc\xe5\xf5\xe0\xed\xe8\xf7\xe5\xf1\xea\xe8\xe5 \xf0\xf3\xea\xe8\\JamClub_Mecha_ude_TV_07_1080p.mp4" -lavfi "[0:v]settb=AVTB,setpts=PTS-STARTPTS,format=pix_fmts=yuv420p10,fps=24000/1001,scale=1920:1080:flags=bicubic[main];[1:v]settb=AVTB,setpts=PTS-STARTPTS,format=pix_fmts=yuv420p,fps=24000/1001,scale=1920:1080:flags=bicubic[ref];[main][ref]psnr=eof_action=endall:stats_file='D\\:/Convert/FFMetrics/logs/psnr_logfile-6.txt'" -f null -
Input #0, matroska,webm, from 'G:\Аниме\Онгоинги\!_36_Осень_2024\JamClub\Механические руки\JamClub_Mecha_ude_TV_07_1080p_HEVC.mkv':
  Metadata:
    COMPATIBLE_BRANDS: isomiso2avc1mp41
    MAJOR_BRAND     : isom
    MINOR_VERSION   : 512
    ENCODER         : Lavf61.7.100
  Duration: 00:24:04.33, start: -0.001000, bitrate: 1417 kb/s
  Stream #0:0: Video: hevc (Main 10), yuv420p10le(tv, bt709, progressive), 1920x1080 [SAR 1:1 DAR 16:9], 23.98 fps, 23.98 tbr, 1k tbn (default)
      Metadata:
        HANDLER_NAME    : VideoHandler
        VENDOR_ID       : [0][0][0][0]
        ENCODER         : Lavc61.19.100 libx265
        BPS             : 1219691
        DURATION        : 00:24:04.192708333
        NUMBER_OF_FRAMES: 34626
        NUMBER_OF_BYTES : 220183616
        _STATISTICS_WRITING_APP: mkvpropedit v66.0.0 ('Josie') 64-bit
        _STATISTICS_WRITING_DATE_UTC: 2025-05-28 15:40:48
        _STATISTICS_TAGS: BPS DURATION NUMBER_OF_FRAMES NUMBER_OF_BYTES
  Stream #0:1(eng): Audio: aac (LC), 48000 Hz, stereo, fltp (default)
      Metadata:
        HANDLER_NAME    : SoundHandler
        VENDOR_ID       : [0][0][0][0]
        ENCODER         : Lavc61.19.100 aac
        BPS             : 194069
        DURATION        : 00:24:04.291000000
        NUMBER_OF_FRAMES: 67702
        NUMBER_OF_BYTES : 35036663
        _STATISTICS_WRITING_APP: mkvpropedit v66.0.0 ('Josie') 64-bit
        _STATISTICS_WRITING_DATE_UTC: 2025-05-28 15:40:48
        _STATISTICS_TAGS: BPS DURATION NUMBER_OF_FRAMES NUMBER_OF_BYTES
Input #1, mov,mp4,m4a,3gp,3g2,mj2, from 'G:\Аниме\Онгоинги\!_36_Осень_2024\JamClub\Механические руки\JamClub_Mecha_ude_TV_07_1080p.mp4':
  Metadata:
    major_brand     : isom
    minor_version   : 512
    compatible_brands: isomiso2avc1mp41
    encoder         : Lavf60.16.100
  Duration: 00:24:04.31, start: 0.000000, bitrate: 3784 kb/s
  Stream #1:0[0x1](und): Video: h264 (High) (avc1 / 0x31637661), yuv420p(progressive), 1920x1080 [SAR 1:1 DAR 16:9], 3586 kb/s, 23.98 fps, 23.98 tbr, 90k tbn (default)
      Metadata:
        handler_name    : VideoHandler
        vendor_id       : [0][0][0][0]
  Stream #1:1[0x2](eng): Audio: aac (LC) (mp4a / 0x6134706D), 48000 Hz, stereo, fltp, 191 kb/s (default)
      Metadata:
        handler_name    : SoundHandler
        vendor_id       : [0][0][0][0]
Stream mapping:
  Stream #0:0 (hevc) -> settb:default
  Stream #1:0 (h264) -> settb:default
  psnr:default -> Stream #0:0 (wrapped_avframe)
  Stream #0:1 -> #0:1 (aac (native) -> pcm_s16le (native))
Output #0, null, to 'pipe:':
  Metadata:
    COMPATIBLE_BRANDS: isomiso2avc1mp41
    MAJOR_BRAND     : isom
    MINOR_VERSION   : 512
    encoder         : Lavf61.7.100
  Stream #0:0: Video: wrapped_avframe, yuv420p10le(tv, bt709, progressive), 1920x1080 [SAR 1:1 DAR 16:9], q=2-31, 200 kb/s, 23.98 fps, 23.98 tbn
      Metadata:
        encoder         : Lavc61.19.100 wrapped_avframe
  Stream #0:1(eng): Audio: pcm_s16le, 48000 Hz, stereo, s16, 1536 kb/s (default)
      Metadata:
        HANDLER_NAME    : SoundHandler
        VENDOR_ID       : [0][0][0][0]
        _STATISTICS_TAGS: BPS DURATION NUMBER_OF_FRAMES NUMBER_OF_BYTES
        BPS             : 194069
        DURATION        : 00:24:04.291000000
        NUMBER_OF_FRAMES: 67702
        NUMBER_OF_BYTES : 35036663
        _STATISTICS_WRITING_APP: mkvpropedit v66.0.0 ('Josie') 64-bit
        _STATISTICS_WRITING_DATE_UTC: 2025-05-28 15:40:48
        encoder         : Lavc61.19.100 pcm_s16le
frame=  112 fps=0.0 q=-0.0 size=N/A time=00:00:04.67 bitrate=N/A speed=9.11x    frame=  275 fps=265 q=-0.0 size=N/A time=00:00:11.46 bitrate=N/A speed=11.1x    frame=  473 fps=307 q=-0.0 size=N/A time=00:00:19.72 bitrate=N/A speed=12.8x    frame=  746 fps=361 q=-0.0 size=N/A time=00:00:31.11 bitrate=N/A speed=15.1x    frame= 1015 fps=394 q=-0.0 size=N/A time=00:00:42.33 bitrate=N/A speed=16.4x    frame= 1302 fps=420 q=-0.0 size=N/A time=00:00:54.30 bitrate=N/A speed=17.5x    frame= 1553 fps=430 q=-0.0 size=N/A time=00:01:04.77 bitrate=N/A speed=17.9x    frame= 1743 fps=422 q=-0.0 size=N/A time=00:01:12.69 bitrate=N/A speed=17.6x    frame= 1934 fps=416 q=-0.0 size=N/A time=00:01:20.66 bitrate=N/A speed=17.4x    frame= 2123 fps=412 q=-0.0 size=N/A time=00:01:28.54 bitrate=N/A speed=17.2x    frame= 2329 fps=410 q=-0.0 size=N/A time=00:01:37.13 bitrate=N/A speed=17.1x    frame= 2472 fps=399 q=-0.0 size=N/A time=00:01:43.10 bitrate=N/A speed=16.6x    frame= 2631 fps=392 q=-0.0 size=N/A time=00:01:49.73 bitrate=N/A speed=16.4x    frame= 2778 fps=385 q=-0.0 size=N/A time=00:01:55.86 bitrate=N/A speed=16.1x    frame= 2974 fps=384 q=-0.0 size=N/A time=00:02:04.04 bitrate=N/A speed=  16x    frame= 3188 fps=386 q=-0.0 size=N/A time=00:02:12.96 bitrate=N/A speed=16.1x    frame= 3443 fps=392 q=-0.0 size=N/A time=00:02:23.60 bitrate=N/A speed=16.4x    frame= 3694 fps=398 q=-0.0 size=N/A time=00:02:34.07 bitrate=N/A speed=16.6x    frame= 3938 fps=402 q=-0.0 size=N/A time=00:02:44.24 bitrate=N/A speed=16.8x    frame= 4199 fps=407 q=-0.0 size=N/A time=00:02:55.13 bitrate=N/A speed=  17x    frame= 4469 fps=413 q=-0.0 size=N/A time=00:03:06.39 bitrate=N/A speed=17.2x    frame= 4719 fps=416 q=-0.0 size=N/A time=00:03:16.82 bitrate=N/A speed=17.3x    frame= 4937 fps=416 q=-0.0 size=N/A time=00:03:25.91 bitrate=N/A speed=17.4x    frame= 5214 fps=421 q=-0.0 size=N/A time=00:03:37.46 bitrate=N/A speed=17.6x    frame= 5472 fps=425 q=-0.0 size=N/A time=00:03:48.22 bitrate=N/A speed=17.7x    frame= 5755 fps=429 q=-0.0 size=N/A time=00:04:00.07 bitrate=N/A speed=17.9x    frame= 6009 fps=431 q=-0.0 size=N/A time=00:04:10.62 bitrate=N/A speed=  18x    frame= 6136 fps=425 q=-0.0 size=N/A time=00:04:15.92 bitrate=N/A speed=17.7x    frame= 6362 fps=425 q=-0.0 size=N/A time=00:04:25.34 bitrate=N/A speed=17.7x    frame= 6616 fps=428 q=-0.0 size=N/A time=00:04:35.94 bitrate=N/A speed=17.8x    frame= 6849 fps=428 q=-0.0 size=N/A time=00:04:45.66 bitrate=N/A speed=17.9x    frame= 7090 fps=430 q=-0.0 size=N/A time=00:04:55.71 bitrate=N/A speed=17.9x    frame= 7353 fps=432 q=-0.0 size=N/A time=00:05:06.68 bitrate=N/A speed=  18x    frame= 7607 fps=434 q=-0.0 size=N/A time=00:05:17.27 bitrate=N/A speed=18.1x    frame= 7799 fps=432 q=-0.0 size=N/A time=00:05:25.28 bitrate=N/A speed=  18x    frame= 8016 fps=432 q=-0.0 size=N/A time=00:05:34.33 bitrate=N/A speed=  18x    frame= 8279 fps=434 q=-0.0 size=N/A time=00:05:45.30 bitrate=N/A speed=18.1x    frame= 8533 fps=435 q=-0.0 size=N/A time=00:05:55.89 bitrate=N/A speed=18.2x    frame= 8789 fps=437 q=-0.0 size=N/A time=00:06:06.57 bitrate=N/A speed=18.2x    frame= 8983 fps=435 q=-0.0 size=N/A time=00:06:14.66 bitrate=N/A speed=18.2x    frame= 9217 fps=436 q=-0.0 size=N/A time=00:06:24.42 bitrate=N/A speed=18.2x    frame= 9420 fps=435 q=-0.0 size=N/A time=00:06:32.89 bitrate=N/A speed=18.1x    frame= 9656 fps=435 q=-0.0 size=N/A time=00:06:42.73 bitrate=N/A speed=18.1x    frame= 9794 fps=431 q=-0.0 size=N/A time=00:06:48.49 bitrate=N/A speed=  18x    frame= 9967 fps=429 q=-0.0 size=N/A time=00:06:55.70 bitrate=N/A speed=17.9x    frame=10213 fps=430 q=-0.0 size=N/A time=00:07:05.96 bitrate=N/A speed=17.9x    frame=10439 fps=430 q=-0.0 size=N/A time=00:07:15.39 bitrate=N/A speed=  18x    frame=10597 fps=428 q=-0.0 size=N/A time=00:07:21.98 bitrate=N/A speed=17.8x    frame=10763 fps=426 q=-0.0 size=N/A time=00:07:28.90 bitrate=N/A speed=17.8x    frame=10994 fps=426 q=-0.0 size=N/A time=00:07:38.54 bitrate=N/A speed=17.8x    frame=11181 fps=425 q=-0.0 size=N/A time=00:07:46.34 bitrate=N/A speed=17.7x    frame=11436 fps=426 q=-0.0 size=N/A time=00:07:56.97 bitrate=N/A speed=17.8x    frame=11704 fps=428 q=-0.0 size=N/A time=00:08:08.15 bitrate=N/A speed=17.8x    frame=11941 fps=429 q=-0.0 size=N/A time=00:08:18.03 bitrate=N/A speed=17.9x    frame=12163 fps=429 q=-0.0 size=N/A time=00:08:27.29 bitrate=N/A speed=17.9x    frame=12436 fps=430 q=-0.0 size=N/A time=00:08:38.68 bitrate=N/A speed=  18x    frame=12707 fps=432 q=-0.0 size=N/A time=00:08:49.98 bitrate=N/A speed=  18x    frame=12973 fps=434 q=-0.0 size=N/A time=00:09:01.08 bitrate=N/A speed=18.1x    frame=13244 fps=435 q=-0.0 size=N/A time=00:09:12.38 bitrate=N/A speed=18.2x    frame=13503 fps=436 q=-0.0 size=N/A time=00:09:23.18 bitrate=N/A speed=18.2x    frame=13767 fps=437 q=-0.0 size=N/A time=00:09:34.19 bitrate=N/A speed=18.2x    frame=13998 fps=438 q=-0.0 size=N/A time=00:09:43.83 bitrate=N/A speed=18.3x    frame=14234 fps=438 q=-0.0 size=N/A time=00:09:53.67 bitrate=N/A speed=18.3x    frame=14467 fps=438 q=-0.0 size=N/A time=00:10:03.39 bitrate=N/A speed=18.3x    frame=14732 fps=439 q=-0.0 size=N/A time=00:10:14.44 bitrate=N/A speed=18.3x    frame=15010 fps=441 q=-0.0 size=N/A time=00:10:26.04 bitrate=N/A speed=18.4x    frame=15294 fps=443 q=-0.0 size=N/A time=00:10:37.88 bitrate=N/A speed=18.5x    frame=15590 fps=444 q=-0.0 size=N/A time=00:10:50.23 bitrate=N/A speed=18.5x    frame=15862 fps=446 q=-0.0 size=N/A time=00:11:01.57 bitrate=N/A speed=18.6x    frame=16127 fps=447 q=-0.0 size=N/A time=00:11:12.63 bitrate=N/A speed=18.6x    frame=16402 fps=448 q=-0.0 size=N/A time=00:11:24.10 bitrate=N/A speed=18.7x    frame=16631 fps=448 q=-0.0 size=N/A time=00:11:33.65 bitrate=N/A speed=18.7x    frame=16860 fps=448 q=-0.0 size=N/A time=00:11:43.20 bitrate=N/A speed=18.7x    frame=17098 fps=448 q=-0.0 size=N/A time=00:11:53.12 bitrate=N/A speed=18.7x    frame=17358 fps=449 q=-0.0 size=N/A time=00:12:03.97 bitrate=N/A speed=18.7x    frame=17602 fps=449 q=-0.0 size=N/A time=00:12:14.15 bitrate=N/A speed=18.7x    frame=17874 fps=450 q=-0.0 size=N/A time=00:12:25.49 bitrate=N/A speed=18.8x    frame=18145 fps=451 q=-0.0 size=N/A time=00:12:36.79 bitrate=N/A speed=18.8x    frame=18398 fps=451 q=-0.0 size=N/A time=00:12:47.34 bitrate=N/A speed=18.8x    frame=18629 fps=451 q=-0.0 size=N/A time=00:12:56.98 bitrate=N/A speed=18.8x    frame=18900 fps=452 q=-0.0 size=N/A time=00:13:08.28 bitrate=N/A speed=18.9x    frame=19177 fps=453 q=-0.0 size=N/A time=00:13:19.84 bitrate=N/A speed=18.9x    frame=19438 fps=454 q=-0.0 size=N/A time=00:13:30.72 bitrate=N/A speed=18.9x    frame=19681 fps=454 q=-0.0 size=N/A time=00:13:40.86 bitrate=N/A speed=18.9x    frame=19926 fps=455 q=-0.0 size=N/A time=00:13:51.08 bitrate=N/A speed=  19x    frame=20224 fps=456 q=-0.0 size=N/A time=00:14:03.50 bitrate=N/A speed=  19x    frame=20494 fps=457 q=-0.0 size=N/A time=00:14:14.77 bitrate=N/A speed=  19x    frame=20768 fps=457 q=-0.0 size=N/A time=00:14:26.19 bitrate=N/A speed=19.1x    frame=20986 fps=457 q=-0.0 size=N/A time=00:14:35.29 bitrate=N/A speed=19.1x    frame=21168 fps=456 q=-0.0 size=N/A time=00:14:42.88 bitrate=N/A speed=  19x    frame=21330 fps=454 q=-0.0 size=N/A time=00:14:49.63 bitrate=N/A speed=  19x    frame=21497 fps=453 q=-0.0 size=N/A time=00:14:56.60 bitrate=N/A speed=18.9x    frame=21705 fps=452 q=-0.0 size=N/A time=00:15:05.27 bitrate=N/A speed=18.9x    frame=21906 fps=452 q=-0.0 size=N/A time=00:15:13.66 bitrate=N/A speed=18.8x    frame=22131 fps=452 q=-0.0 size=N/A time=00:15:23.04 bitrate=N/A speed=18.8x    frame=22395 fps=452 q=-0.0 size=N/A time=00:15:34.05 bitrate=N/A speed=18.9x    frame=22602 fps=452 q=-0.0 size=N/A time=00:15:42.69 bitrate=N/A speed=18.8x    frame=22849 fps=452 q=-0.0 size=N/A time=00:15:52.99 bitrate=N/A speed=18.9x    frame=23074 fps=452 q=-0.0 size=N/A time=00:16:02.37 bitrate=N/A speed=18.8x    frame=23300 fps=452 q=-0.0 size=N/A time=00:16:11.80 bitrate=N/A speed=18.8x    frame=23509 fps=451 q=-0.0 size=N/A time=00:16:20.52 bitrate=N/A speed=18.8x    frame=23742 fps=451 q=-0.0 size=N/A time=00:16:30.23 bitrate=N/A speed=18.8x    frame=24014 fps=452 q=-0.0 size=N/A time=00:16:41.58 bitrate=N/A speed=18.9x    frame=24289 fps=453 q=-0.0 size=N/A time=00:16:53.05 bitrate=N/A speed=18.9x    frame=24555 fps=453 q=-0.0 size=N/A time=00:17:04.14 bitrate=N/A speed=18.9x    frame=24828 fps=454 q=-0.0 size=N/A time=00:17:15.53 bitrate=N/A speed=18.9x    frame=25098 fps=455 q=-0.0 size=N/A time=00:17:26.79 bitrate=N/A speed=  19x    frame=25377 fps=456 q=-0.0 size=N/A time=00:17:38.43 bitrate=N/A speed=  19x    frame=25632 fps=456 q=-0.0 size=N/A time=00:17:49.06 bitrate=N/A speed=  19x    frame=25897 fps=456 q=-0.0 size=N/A time=00:18:00.12 bitrate=N/A speed=  19x    frame=26108 fps=456 q=-0.0 size=N/A time=00:18:08.92 bitrate=N/A speed=  19x    frame=26348 fps=456 q=-0.0 size=N/A time=00:18:18.93 bitrate=N/A speed=  19x    frame=26619 fps=457 q=-0.0 size=N/A time=00:18:30.23 bitrate=N/A speed=19.1x    frame=26893 fps=457 q=-0.0 size=N/A time=00:18:41.66 bitrate=N/A speed=19.1x    frame=27163 fps=458 q=-0.0 size=N/A time=00:18:52.92 bitrate=N/A speed=19.1x    frame=27448 fps=459 q=-0.0 size=N/A time=00:19:04.81 bitrate=N/A speed=19.1x    frame=27648 fps=458 q=-0.0 size=N/A time=00:19:13.15 bitrate=N/A speed=19.1x    frame=27901 fps=458 q=-0.0 size=N/A time=00:19:23.70 bitrate=N/A speed=19.1x    frame=28177 fps=459 q=-0.0 size=N/A time=00:19:35.21 bitrate=N/A speed=19.1x    frame=28421 fps=459 q=-0.0 size=N/A time=00:19:45.39 bitrate=N/A speed=19.2x    frame=28627 fps=459 q=-0.0 size=N/A time=00:19:53.98 bitrate=N/A speed=19.1x    frame=28866 fps=459 q=-0.0 size=N/A time=00:20:03.95 bitrate=N/A speed=19.1x    frame=29147 fps=459 q=-0.0 size=N/A time=00:20:15.67 bitrate=N/A speed=19.2x    frame=29422 fps=460 q=-0.0 size=N/A time=00:20:27.14 bitrate=N/A speed=19.2x    frame=29688 fps=460 q=-0.0 size=N/A time=00:20:38.23 bitrate=N/A speed=19.2x    frame=29976 fps=461 q=-0.0 size=N/A time=00:20:50.24 bitrate=N/A speed=19.2x    frame=30249 fps=462 q=-0.0 size=N/A time=00:21:01.63 bitrate=N/A speed=19.3x    frame=30498 fps=462 q=-0.0 size=N/A time=00:21:12.02 bitrate=N/A speed=19.3x    frame=30783 fps=463 q=-0.0 size=N/A time=00:21:23.90 bitrate=N/A speed=19.3x    frame=31027 fps=463 q=-0.0 size=N/A time=00:21:34.08 bitrate=N/A speed=19.3x    frame=31303 fps=463 q=-0.0 size=N/A time=00:21:45.59 bitrate=N/A speed=19.3x    frame=31581 fps=464 q=-0.0 size=N/A time=00:21:57.23 bitrate=N/A speed=19.4x    frame=31822 fps=464 q=-0.0 size=N/A time=00:22:07.24 bitrate=N/A speed=19.4x    frame=32091 fps=464 q=-0.0 size=N/A time=00:22:18.46 bitrate=N/A speed=19.4x    frame=32341 fps=465 q=-0.0 size=N/A time=00:22:28.88 bitrate=N/A speed=19.4x    frame=32619 fps=465 q=-0.0 size=N/A time=00:22:40.48 bitrate=N/A speed=19.4x    frame=32890 fps=465 q=-0.0 size=N/A time=00:22:51.78 bitrate=N/A speed=19.4x    frame=33147 fps=466 q=-0.0 size=N/A time=00:23:02.50 bitrate=N/A speed=19.4x    frame=33405 fps=466 q=-0.0 size=N/A time=00:23:13.26 bitrate=N/A speed=19.4x    frame=33663 fps=466 q=-0.0 size=N/A time=00:23:24.02 bitrate=N/A speed=19.4x    frame=33925 fps=466 q=-0.0 size=N/A time=00:23:34.95 bitrate=N/A speed=19.5x    frame=34174 fps=467 q=-0.0 size=N/A time=00:23:45.34 bitrate=N/A speed=19.5x    frame=34424 fps=467 q=-0.0 size=N/A time=00:23:55.76 bitrate=N/A speed=19.5x    [Parsed_psnr_10 @ 00000270e0478ec0] PSNR y:48.234819 u:50.297334 v:50.375507 average:48.829002 min:33.717785 max:inf
[out#0/null @ 00000270dfd306c0] video:14878KiB audio:270808KiB subtitle:0KiB other streams:0KiB global headers:0KiB muxing overhead: unknown
frame=34626 fps=467 q=-0.0 Lsize=N/A time=00:24:04.19 bitrate=N/A speed=19.5x    
